<?xml version="1.0" encoding="utf-8"?>
<!-- Generator: Adobe Illustrator 16.0.0, SVG Export Plug-In . SVG Version: 6.00 Build 0)  -->
<!DOCTYPE svg PUBLIC "-//W3C//DTD SVG 1.1//EN" "http://www.w3.org/Graphics/SVG/1.1/DTD/svg11.dtd">
<svg version="1.1" id="Layer_1" xmlns="http://www.w3.org/2000/svg" xmlns:xlink="http://www.w3.org/1999/xlink" x="0px" y="0px"
	 width="841.89px" height="436.363px" viewBox="0 0 841.89 436.363" enable-background="new 0 0 841.89 436.363"
	 xml:space="preserve">
<g>
	<g>
		<path fill="#191919" d="M71.266,106.053c0,0.102-0.014,0.222-0.042,0.352c-0.025,0.132-0.037,0.25-0.037,0.354
			c-0.051,1.203-0.328,2.315-0.823,3.338c-0.5,1.022-1.152,1.911-1.966,2.669c-0.812,0.759-1.737,1.36-2.785,1.805
			c-1.048,0.444-2.172,0.666-3.375,0.666c-1.256,0-2.422-0.231-3.495-0.703c-1.074-0.472-2.018-1.115-2.827-1.925
			c-0.814-0.81-1.453-1.749-1.924-2.829c-0.472-1.071-0.706-2.237-0.706-3.493c0-0.469,0.025-0.835,0.076-1.096V72.522
			c0-7.585-1.045-12.823-3.137-15.7c-2.149-2.984-5.89-4.476-11.233-4.476c-5.963,0-10.152,1.964-12.561,5.885
			c-2.459,3.824-3.69,10.523-3.69,20.102v25.758c0.104,0.363,0.155,0.689,0.155,0.981c0,0.287,0,0.639,0,1.057
			c0,1.256-0.236,2.45-0.703,3.576c-0.472,1.125-1.101,2.105-1.888,2.945c-0.784,0.837-1.726,1.504-2.825,1.999
			c-1.101,0.5-2.276,0.745-3.532,0.745c-1.258,0-2.447-0.231-3.576-0.703c-1.125-0.472-2.107-1.125-2.942-1.964
			c-0.837-0.84-1.495-1.807-1.964-2.906c-0.47-1.099-0.706-2.278-0.706-3.535c0-0.576,0.025-0.992,0.079-1.256V47.555
			c0-1.258,0.236-2.436,0.706-3.535c0.469-1.101,1.126-2.068,1.964-2.905c0.835-0.837,1.804-1.49,2.905-1.961
			c1.099-0.47,2.276-0.708,3.535-0.708c1.045,0,2.054,0.185,3.021,0.55c0.967,0.366,1.846,0.865,2.628,1.495
			c0.787,0.625,1.458,1.386,2.005,2.271c0.548,0.893,0.928,1.837,1.138,2.829c6.23-6.179,13.271-9.265,21.123-9.265
			c8.947,0,15.91,2.827,20.886,8.48c4.342,4.71,6.516,12.51,6.516,23.398V106.053z"/>
		<path fill="#191919" d="M148.366,47.949V82.73c0,6.021-0.759,11.307-2.276,15.862c-1.466,3.979-4.006,7.562-7.617,10.757
			c-5.968,5.184-13.558,7.775-22.77,7.775c-9.163,0-16.725-2.591-22.693-7.775c-1.832-1.622-3.403-3.324-4.712-5.105
			c-1.307-1.776-2.33-3.662-3.061-5.651c-1.466-3.558-2.2-8.843-2.2-15.862V47.319v-0.079c0-1.203,0.233-2.343,0.708-3.415
			c0.47-1.071,1.099-2.003,1.881-2.785c0.787-0.791,1.716-1.416,2.79-1.887c1.074-0.47,2.235-0.708,3.493-0.708
			c1.205,0,2.341,0.238,3.417,0.708c1.071,0.472,2.001,1.096,2.787,1.887c0.787,0.782,1.416,1.714,1.883,2.785
			c0.472,1.071,0.708,2.212,0.708,3.415v0.079v34.939c0,12.723,4.997,19.084,14.999,19.084c9.996,0,14.995-6.361,14.995-19.084
			V47.319c0-1.203,0.238-2.341,0.708-3.414c0.472-1.074,1.099-2.018,1.885-2.829c0.784-0.81,1.714-1.451,2.787-1.922
			c1.069-0.47,2.212-0.708,3.415-0.708c1.258,0,2.422,0.238,3.496,0.708c1.071,0.472,2.001,1.112,2.787,1.922
			c0.787,0.812,1.411,1.755,1.883,2.829c0.474,1.073,0.708,2.211,0.708,3.414V47.949z"/>
		<path fill="#263368" d="M88.379,14.185c0-3.035,1.096-5.626,3.294-7.772c2.198-2.202,4.844-3.299,7.93-3.299
			c3.09,0,5.735,1.097,7.935,3.299c2.198,2.146,3.296,4.763,3.296,7.849c0,3.144-1.099,5.813-3.296,8.011
			c-2.304,2.147-4.946,3.218-7.935,3.218c-3.137,0-5.809-1.099-8.004-3.294C89.45,19.889,88.379,17.219,88.379,14.185z"/>
		<path fill="#263368" d="M121.2,14.185c0-3.035,1.099-5.626,3.296-7.772c2.25-2.202,4.895-3.299,7.932-3.299
			c3.141,0,5.783,1.097,7.927,3.299c2.2,2.146,3.301,4.763,3.301,7.849c0,3.144-1.101,5.813-3.301,8.011
			c-2.304,2.147-4.943,3.218-7.927,3.218c-3.091,0-5.735-1.099-7.932-3.294C122.298,19.993,121.2,17.326,121.2,14.185z"/>
		<path fill="#263368" d="M245.113,41.303c1.245,0,2.399,0.233,3.465,0.701c1.064,0.467,1.987,1.104,2.767,1.906
			c0.777,0.807,1.399,1.744,1.869,2.804c0.465,1.066,0.701,2.198,0.701,3.391v0.231v57.951c-0.053,0.051-0.079,0.13-0.079,0.234
			c0,1.196-0.233,2.311-0.703,3.352c-0.465,1.036-1.087,1.943-1.869,2.725c-0.777,0.777-1.698,1.397-2.764,1.869
			c-1.064,0.467-2.193,0.703-3.387,0.703c-1.196,0-2.325-0.236-3.391-0.703c-1.064-0.472-1.987-1.092-2.762-1.869
			c-0.782-0.782-1.404-1.702-1.869-2.767c-0.47-1.06-0.703-2.19-0.703-3.387v-0.934V50.336v-0.231c0-1.193,0.233-2.325,0.703-3.391
			c0.465-1.06,1.087-1.997,1.869-2.804c0.775-0.803,1.698-1.439,2.762-1.906C242.789,41.536,243.917,41.303,245.113,41.303z"/>
		<path fill="#263368" d="M324.946,41.222c1.245,0,2.401,0.236,3.467,0.703c1.064,0.467,1.985,1.092,2.762,1.869
			c0.782,0.782,1.404,1.703,1.869,2.767c0.469,1.064,0.706,2.221,0.706,3.465c0,1.661-0.391,3.114-1.171,4.36l-28.587,58.731
			l-0.076-0.079c-0.521,1.143-1.064,2.184-1.633,3.119c-0.47,0.777-0.951,1.48-1.441,2.1c-0.498,0.625-0.951,0.935-1.365,0.935
			c-0.261,0-0.546-0.157-0.858-0.467c-0.31-0.314-0.636-0.699-0.974-1.17c-0.337-0.463-0.673-0.967-1.011-1.518
			c-0.34-0.546-0.611-1.05-0.819-1.518l-29.133-60.364c-0.727-1.298-1.09-2.702-1.09-4.208c0-1.194,0.236-2.322,0.701-3.387
			c0.469-1.064,1.103-1.985,1.911-2.767c0.803-0.777,1.737-1.402,2.804-1.869c1.062-0.467,2.218-0.703,3.463-0.703
			c1.765,0,3.363,0.483,4.791,1.443s2.48,2.221,3.155,3.778l0.079,0.076l16.278,35.129c0.104,0.264,0.248,0.509,0.428,0.74
			c0.18,0.236,0.352,0.352,0.506,0.352c0.208,0,0.467-0.282,0.78-0.856c0.155-0.208,0.312-0.495,0.467-0.856v0.077l15.89-34.585
			c0.675-1.557,1.742-2.829,3.197-3.814C321.492,41.719,323.13,41.222,324.946,41.222z"/>
		<path fill="#263368" d="M354.694,41.303c1.247,0,2.404,0.233,3.468,0.701s1.987,1.104,2.764,1.906
			c0.78,0.807,1.404,1.744,1.869,2.804c0.47,1.066,0.703,2.198,0.703,3.391v0.231v57.951c-0.053,0.051-0.079,0.13-0.079,0.234
			c0,1.196-0.233,2.311-0.703,3.352c-0.465,1.036-1.087,1.943-1.867,2.725c-0.78,0.777-1.703,1.397-2.767,1.869
			c-1.064,0.467-2.193,0.703-3.389,0.703c-1.193,0-2.322-0.236-3.386-0.703c-1.064-0.472-1.987-1.092-2.765-1.869
			c-0.779-0.782-1.404-1.702-1.869-2.767c-0.467-1.06-0.703-2.19-0.703-3.387v-0.934V50.336v-0.231c0-1.193,0.236-2.325,0.703-3.391
			c0.465-1.06,1.09-1.997,1.869-2.804c0.777-0.803,1.7-1.439,2.765-1.906C352.372,41.536,353.5,41.303,354.694,41.303z"/>
		<path fill="#263368" d="M429.619,100.58c1.143,0,2.207,0.222,3.196,0.657c0.981,0.444,1.842,1.041,2.568,1.795
			c0.726,0.751,1.3,1.624,1.716,2.609c0.412,0.985,0.62,2.052,0.62,3.192c0,1.818-0.532,3.426-1.596,4.83
			c-1.064,1.402-2.429,2.364-4.086,2.882c-5.251,2.022-10.44,3.04-15.581,3.04c-11.788,0-21.682-3.821-29.679-11.45
			c-7.944-7.687-11.918-17.188-11.918-28.509c0-11.321,4.025-20.902,12.075-28.744c7.997-7.84,17.863-11.761,29.598-11.761
			c5.401,0,10.596,0.935,15.578,2.804c1.61,0.574,2.947,1.559,4.012,2.961c1.063,1.402,1.596,3.038,1.596,4.909
			c0,1.141-0.218,2.216-0.661,3.234c-0.444,1.009-1.027,1.893-1.754,2.642c-0.727,0.758-1.596,1.353-2.609,1.795
			c-1.013,0.444-2.086,0.662-3.229,0.662c-1.351,0-2.65-0.338-3.896-1.013c-2.857-1.351-6.05-2.026-9.582-2.026
			c-6.646,0-12.149,2.262-16.512,6.778c-4.363,4.673-6.542,10.516-6.542,17.525c0,7.217,2.103,13.088,6.309,17.604
			c4.36,4.52,9.838,6.778,16.436,6.778c3.896,0,7.373-0.805,10.438-2.415C427.255,100.836,428.425,100.58,429.619,100.58z"/>
		<path fill="#263368" d="M214.324,100.58c1.147,0,2.209,0.222,3.195,0.657c0.988,0.444,1.846,1.041,2.572,1.795
			c0.729,0.751,1.298,1.624,1.712,2.609c0.414,0.985,0.622,2.052,0.622,3.192c0,1.818-0.532,3.426-1.594,4.83
			c-1.066,1.402-2.429,2.364-4.09,2.882c-5.244,2.022-10.439,3.04-15.58,3.04c-11.789,0-21.68-3.821-29.674-11.45
			c-7.946-7.687-11.916-17.188-11.916-28.509c0-11.321,4.021-20.902,12.068-28.744c8-7.84,17.865-11.761,29.601-11.761
			c5.401,0,10.595,0.935,15.577,2.804c1.612,0.574,2.947,1.559,4.014,2.961c1.062,1.402,1.594,3.038,1.594,4.909
			c0,1.141-0.22,2.216-0.659,3.234c-0.442,1.009-1.029,1.893-1.756,2.642c-0.726,0.758-1.594,1.353-2.604,1.795
			c-1.016,0.444-2.091,0.662-3.234,0.662c-1.351,0-2.649-0.338-3.896-1.013c-2.854-1.351-6.052-2.026-9.582-2.026
			c-6.646,0-12.149,2.262-16.514,6.778c-4.361,4.673-6.542,10.516-6.542,17.525c0,7.217,2.105,13.088,6.311,17.604
			c4.36,4.52,9.84,6.778,16.436,6.778c3.896,0,7.373-0.805,10.438-2.415C211.964,100.836,213.133,100.58,214.324,100.58z"/>
	</g>
	<g>
		<path fill="#3C67B1" d="M178.346,185.896c29.323,26.755,43.984,61.824,43.984,105.197c0,43.498-15.274,78.743-45.817,105.743
			c-15.395,13.564-31.402,22.91-48.017,28.041c-15.641,5.256-37.817,7.884-66.527,7.884H13.22c-2.813-0.12-5.163-1.129-7.057-3.025
			c-1.896-1.893-2.903-4.243-3.023-7.056V159.502c0.12-2.683,1.067-4.973,2.841-6.87c1.77-1.892,4-2.961,6.688-3.207h49.85
			c28.71,0,51.252,2.809,67.626,8.43C147.739,163.352,163.804,172.697,178.346,185.896z M147.556,366.232
			c21.014-19.181,31.521-44.229,31.521-75.139c0-31.159-10.386-56.327-31.155-75.509c-18.693-17.229-46.307-25.844-82.837-25.844
			h-8.981c-2.812,0-5.194,1.009-7.146,3.026c-1.956,2.017-2.996,4.432-3.116,7.24v182.168c0,2.812,0.945,5.195,2.841,7.147
			c1.894,1.957,4.184,3.059,6.873,3.299h9.531c19.427,0,35.431-2.072,48.016-6.231C125.44,382.24,136.926,375.519,147.556,366.232z"
			/>
		<path fill="#3C67B1" d="M465.678,404.535c1.102,2.568,1.56,5.256,1.374,8.064c-0.181,2.812-0.884,5.469-2.105,7.972
			c-1.221,2.507-2.873,4.737-4.95,6.689c-2.077,1.957-4.46,3.483-7.147,4.58c-2.563,0.98-5.224,1.406-7.972,1.286
			s-5.344-0.735-7.786-1.832c-2.447-1.101-4.612-2.628-6.51-4.585c-1.893-1.952-3.387-4.215-4.487-6.777l-1.102-2.018
			l-19.425-45.816c-0.366-0.735-0.888-1.526-1.557-2.382c-0.673-0.856-1.439-1.712-2.292-2.568
			c-0.856-0.851-1.865-1.559-3.023-2.109c-1.164-0.546-2.475-0.823-3.939-0.823H287.726c-2.447,0-4.49,0.796-6.14,2.383
			c-1.651,1.591-2.905,3.118-3.759,4.584l-22.726,49.296c-1.589,3.789-4.094,6.814-7.513,9.072
			c-3.421,2.263-7.271,3.392-11.545,3.392c-2.933,0-5.653-0.551-8.156-1.647c-2.505-1.101-4.673-2.596-6.505-4.492
			c-1.834-1.893-3.299-4.09-4.4-6.598c-1.099-2.503-1.649-5.223-1.649-8.156c0-2.809,0.488-5.251,1.466-7.328l0.917-2.202
			l112.528-242.28c0.243-0.486,0.733-1.286,1.466-2.383c0.733-1.101,1.649-2.23,2.748-3.391c1.101-1.161,2.383-2.17,3.85-3.026
			c1.466-0.851,3.116-1.281,4.948-1.281c1.953,0,3.727,0.55,5.316,1.651c1.584,1.097,2.931,2.323,4.032,3.664
			c1.342,1.587,2.503,3.359,3.481,5.316l109.594,243.562V404.535z M375.511,323.896c2.2,0,3.725-0.426,4.583-1.281
			c0.852-0.852,1.342-1.768,1.464-2.748c0.12-1.222-0.062-2.568-0.548-4.034l-37.021-85.035c-0.613-1.222-1.164-1.68-1.649-1.374
			c-0.49,0.306-0.856,0.639-1.099,1.009l-39.039,85.771c-0.123,0.365-0.245,0.976-0.365,1.832c-0.123,0.855-0.093,1.679,0.092,2.475
			c0.183,0.796,0.668,1.527,1.464,2.198c0.793,0.671,2.045,1.068,3.759,1.188h68.541H375.511z"/>
		<path fill="#3C67B1" d="M503.064,200.007c-0.125-2.808-1.166-5.163-3.118-7.055c-1.957-1.892-4.34-2.901-7.148-3.026h-35.004
			v-0.185c-2.812,0-5.436-0.518-7.879-1.554c-2.447-1.037-4.552-2.476-6.324-4.308c-1.771-1.832-3.179-3.942-4.215-6.324
			c-1.041-2.383-1.559-4.978-1.559-7.787c0-2.812,0.518-5.436,1.559-7.883c1.036-2.443,2.476-4.58,4.308-6.413
			c1.832-1.832,3.97-3.266,6.412-4.307c2.442-1.036,5.07-1.559,7.884-1.559h132.317c2.812,0,5.437,0.551,7.884,1.652
			c2.442,1.096,4.58,2.563,6.412,4.395c1.832,1.837,3.267,3.974,4.308,6.417c1.036,2.443,1.559,5.01,1.559,7.698
			c0,2.809-0.522,5.404-1.559,7.787c-1.041,2.382-2.476,4.492-4.308,6.324s-3.97,3.299-6.412,4.4
			c-2.447,1.097-5.011,1.647-7.698,1.647h-0.186h-34.634c-2.692,0.125-4.982,1.134-6.875,3.026
			c-1.896,1.892-2.905,4.247-3.025,7.055v211.676c0,2.933-0.546,5.681-1.647,8.249c-1.101,2.562-2.628,4.825-4.58,6.777
			c-1.957,1.957-4.247,3.484-6.875,4.585c-2.628,1.097-5.404,1.647-8.337,1.647c-2.934,0-5.714-0.551-8.342-1.647
			c-2.628-1.101-4.886-2.596-6.777-4.492c-1.897-1.893-3.392-4.15-4.492-6.782c-1.102-2.623-1.647-5.404-1.647-8.337V200.007z"/>
		<path fill="#3C67B1" d="M836.764,404.535c1.102,2.568,1.56,5.256,1.374,8.064c-0.185,2.812-0.888,5.469-2.109,7.972
			c-1.222,2.507-2.868,4.737-4.945,6.689c-2.082,1.957-4.465,3.483-7.148,4.58c-2.567,0.98-5.224,1.406-7.972,1.286
			s-5.348-0.735-7.791-1.832c-2.442-1.101-4.612-2.628-6.505-4.585c-1.896-1.952-3.391-4.215-4.492-6.777l-1.096-2.018
			l-19.427-45.816c-0.366-0.735-0.889-1.526-1.56-2.382c-0.671-0.856-1.438-1.712-2.29-2.568c-0.855-0.851-1.864-1.559-3.025-2.109
			c-1.161-0.546-2.476-0.823-3.938-0.823H658.811c-2.447,0-4.492,0.796-6.14,2.383c-1.651,1.591-2.905,3.118-3.761,4.584
			l-22.726,49.296c-1.587,3.789-4.095,6.814-7.514,9.072c-3.419,2.263-7.268,3.392-11.543,3.392c-2.933,0-5.653-0.551-8.156-1.647
			c-2.508-1.101-4.673-2.596-6.505-4.492c-1.837-1.893-3.299-4.09-4.399-6.598c-1.102-2.503-1.652-5.223-1.652-8.156
			c0-2.809,0.49-5.251,1.467-7.328l0.916-2.202l112.53-242.28c0.24-0.486,0.73-1.286,1.467-2.383c0.73-1.101,1.646-2.23,2.748-3.391
			c1.101-1.161,2.383-2.17,3.849-3.026c1.467-0.851,3.114-1.281,4.946-1.281c1.952,0,3.729,0.55,5.315,1.651
			c1.587,1.097,2.934,2.323,4.034,3.664c1.342,1.587,2.503,3.359,3.479,5.316l109.597,243.562V404.535z M746.594,323.896
			c2.202,0,3.725-0.426,4.585-1.281c0.852-0.852,1.342-1.768,1.462-2.748c0.12-1.222-0.061-2.568-0.546-4.034l-37.021-85.035
			c-0.615-1.222-1.166-1.68-1.651-1.374c-0.49,0.306-0.856,0.639-1.097,1.009l-39.038,85.771c-0.125,0.365-0.245,0.976-0.365,1.832
			c-0.125,0.855-0.093,1.679,0.092,2.475c0.181,0.796,0.666,1.527,1.462,2.198s2.045,1.068,3.762,1.188h68.541H746.594z"/>
	</g>
</g>
</svg>
